<svg width="150" height="93" viewBox="0 0 150 93" fill="none" xmlns="http://www.w3.org/2000/svg">
    <path d="M75 35.0641L91.9798 18.2349L97.6993 23.964L103.598 18.2349L120.399 35.0641H111.283V55.295H101.989V45.4481H93.2309V55.295H83.758V35.0641H75Z" fill="#879472"/>
    <rect x="89.0532" y="8.80859" width="12.6221" height="12.6221" transform="rotate(-44.2552 89.0532 8.80859)" fill="#879472"/>
    <path d="M29.6013 35.0641L46.5811 18.2349L52.3006 23.964L58.1989 18.2349L74.9999 35.0641H65.8845V55.295H56.5903V45.4481H47.8323V55.295H38.3593V35.0641H29.6013Z" fill="#64675A"/>
    <rect x="43.5972" y="8.80859" width="12.6221" height="12.6221" transform="rotate(-44.2552 43.5972 8.80859)" fill="#64675A"/>
    <path d="M51.8374 41.0439L69.1637 23.7939L75 29.6663L81.0186 23.7939L98.1625 41.0439H88.861V61.7805H79.3771V51.6875H70.4404V61.7805H60.7741V41.0439H51.8374Z" fill="#D6CDBB"/>
    <rect x="66.3252" y="14.9414" width="12.6221" height="12.6221" transform="rotate(-44.2552 66.3252 14.9414)" fill="#D6CDBB"/>
    <path d="M14.6872 73.3803V84.7803H11.2372V67.0303H13.9872L23.1622 78.7303V67.0553H26.6122V84.7803H23.7372L14.6872 73.3803ZM35.8349 85.0303C34.7849 85.0303 33.8349 84.8553 32.9849 84.5053C32.1349 84.1386 31.4099 83.6469 30.8099 83.0303C30.2099 82.3969 29.7432 81.6803 29.4099 80.8803C29.0932 80.0636 28.9349 79.2053 28.9349 78.3053C28.9349 77.0553 29.2099 75.9136 29.7599 74.8803C30.3265 73.8469 31.1265 73.0219 32.1599 72.4053C33.2099 71.7719 34.4432 71.4553 35.8599 71.4553C37.2932 71.4553 38.5182 71.7719 39.5349 72.4053C40.5515 73.0219 41.3265 73.8469 41.8599 74.8803C42.4099 75.8969 42.6849 76.9969 42.6849 78.1803C42.6849 78.3803 42.6765 78.5886 42.6599 78.8053C42.6432 79.0053 42.6265 79.1719 42.6099 79.3053H32.4849C32.5515 79.9719 32.7432 80.5553 33.0599 81.0553C33.3932 81.5553 33.8099 81.9386 34.3099 82.2053C34.8265 82.4553 35.3765 82.5803 35.9599 82.5803C36.6265 82.5803 37.2515 82.4219 37.8349 82.1053C38.4349 81.7719 38.8432 81.3386 39.0599 80.8053L41.9349 81.6053C41.6182 82.2719 41.1599 82.8636 40.5599 83.3803C39.9765 83.8969 39.2849 84.3053 38.4849 84.6053C37.6849 84.8886 36.8015 85.0303 35.8349 85.0303ZM32.4099 77.1803H39.2599C39.1932 76.5136 39.0015 75.9386 38.6849 75.4553C38.3849 74.9553 37.9849 74.5719 37.4849 74.3053C36.9849 74.0219 36.4265 73.8803 35.8099 73.8803C35.2099 73.8803 34.6599 74.0219 34.1599 74.3053C33.6765 74.5719 33.2765 74.9553 32.9599 75.4553C32.6599 75.9386 32.4765 76.5136 32.4099 77.1803ZM44.7257 84.7803V71.6803H48.0757V84.7803H44.7257ZM44.7257 69.8553V66.5303H48.0757V69.8553H44.7257ZM56.2228 84.8553C55.3561 84.8553 54.5561 84.6886 53.8228 84.3553C53.1061 84.0053 52.4811 83.5219 51.9478 82.9053C51.4311 82.2886 51.0311 81.5803 50.7478 80.7803C50.4644 79.9803 50.3228 79.1303 50.3228 78.2303C50.3228 77.2803 50.4728 76.3969 50.7728 75.5803C51.0728 74.7636 51.4894 74.0469 52.0228 73.4303C52.5728 72.7969 53.2144 72.3136 53.9478 71.9803C54.6978 71.6303 55.5228 71.4553 56.4228 71.4553C57.4394 71.4553 58.3311 71.6886 59.0978 72.1553C59.8644 72.6053 60.4978 73.2136 60.9978 73.9803V71.6803H63.9228V84.1553C63.9228 85.4553 63.6061 86.5636 62.9728 87.4803C62.3561 88.4136 61.4978 89.1219 60.3978 89.6053C59.2978 90.1053 58.0478 90.3553 56.6478 90.3553C55.2311 90.3553 54.0311 90.1136 53.0478 89.6303C52.0644 89.1636 51.2228 88.4969 50.5228 87.6303L52.3478 85.8553C52.8478 86.4719 53.4728 86.9553 54.2228 87.3053C54.9894 87.6553 55.7978 87.8303 56.6478 87.8303C57.3644 87.8303 58.0144 87.6969 58.5978 87.4303C59.1978 87.1803 59.6728 86.7803 60.0228 86.2303C60.3894 85.6969 60.5728 85.0053 60.5728 84.1553V82.5053C60.1394 83.2553 59.5228 83.8386 58.7228 84.2553C57.9394 84.6553 57.1061 84.8553 56.2228 84.8553ZM57.3478 82.1803C57.7144 82.1803 58.0644 82.1219 58.3978 82.0053C58.7311 81.8886 59.0394 81.7303 59.3228 81.5303C59.6061 81.3303 59.8561 81.0969 60.0728 80.8303C60.2894 80.5469 60.4561 80.2636 60.5728 79.9803V76.8553C60.3728 76.3386 60.0894 75.8886 59.7228 75.5053C59.3728 75.1219 58.9728 74.8303 58.5228 74.6303C58.0894 74.4136 57.6311 74.3053 57.1478 74.3053C56.6311 74.3053 56.1644 74.4136 55.7478 74.6303C55.3311 74.8469 54.9728 75.1553 54.6728 75.5553C54.3728 75.9386 54.1394 76.3719 53.9728 76.8553C53.8228 77.3219 53.7478 77.8136 53.7478 78.3303C53.7478 78.8636 53.8394 79.3636 54.0228 79.8303C54.2061 80.2969 54.4561 80.7053 54.7728 81.0553C55.1061 81.4053 55.4894 81.6803 55.9228 81.8803C56.3728 82.0803 56.8478 82.1803 57.3478 82.1803ZM79.1175 84.7803H75.7675V77.4303C75.7675 76.4136 75.5675 75.6553 75.1675 75.1553C74.7841 74.6553 74.2508 74.4053 73.5675 74.4053C73.1675 74.4053 72.7425 74.5219 72.2925 74.7553C71.8425 74.9886 71.4341 75.3136 71.0675 75.7303C70.7175 76.1303 70.4591 76.5969 70.2925 77.1303V84.7803H66.9425V66.5303H70.2925V74.1053C70.7758 73.2719 71.4341 72.6219 72.2675 72.1553C73.1008 71.6886 74.0091 71.4553 74.9925 71.4553C75.8425 71.4553 76.5341 71.6053 77.0675 71.9053C77.6008 72.1886 78.0175 72.5803 78.3175 73.0803C78.6175 73.5636 78.8258 74.1136 78.9425 74.7303C79.0591 75.3303 79.1175 75.9553 79.1175 76.6053V84.7803ZM89.4804 85.0303C88.4804 85.0303 87.5887 84.8053 86.8054 84.3553C86.022 83.9053 85.4054 83.2886 84.9554 82.5053V84.7803H82.0304V66.5303H85.3804V73.9803C85.847 73.1969 86.4554 72.5803 87.2054 72.1303C87.972 71.6803 88.8637 71.4553 89.8804 71.4553C90.7304 71.4553 91.5054 71.6386 92.2054 72.0053C92.9054 72.3553 93.5054 72.8469 94.0054 73.4803C94.522 74.1136 94.9137 74.8386 95.1804 75.6553C95.4637 76.4719 95.6054 77.3469 95.6054 78.2803C95.6054 79.2136 95.447 80.0886 95.1304 80.9053C94.8304 81.7219 94.4054 82.4469 93.8554 83.0803C93.3054 83.6969 92.6554 84.1803 91.9054 84.5303C91.172 84.8636 90.3637 85.0303 89.4804 85.0303ZM88.5554 82.1803C89.0887 82.1803 89.572 82.0803 90.0054 81.8803C90.4554 81.6636 90.8387 81.3803 91.1554 81.0303C91.4887 80.6803 91.7387 80.2719 91.9054 79.8053C92.0887 79.3219 92.1804 78.8219 92.1804 78.3053C92.1804 77.5886 92.0304 76.9303 91.7304 76.3303C91.447 75.7136 91.047 75.2219 90.5304 74.8553C90.0304 74.4886 89.4387 74.3053 88.7554 74.3053C88.272 74.3053 87.8054 74.4219 87.3554 74.6553C86.922 74.8719 86.5304 75.1719 86.1804 75.5553C85.847 75.9386 85.5804 76.3719 85.3804 76.8553V79.9803C85.4804 80.3136 85.6387 80.6136 85.8554 80.8803C86.0887 81.1469 86.3554 81.3803 86.6554 81.5803C86.9554 81.7636 87.2637 81.9136 87.5804 82.0303C87.9137 82.1303 88.2387 82.1803 88.5554 82.1803ZM103.925 85.0303C102.858 85.0303 101.9 84.8553 101.05 84.5053C100.2 84.1386 99.4751 83.6386 98.8751 83.0053C98.2918 82.3719 97.8418 81.6469 97.5251 80.8303C97.2084 80.0136 97.0501 79.1553 97.0501 78.2553C97.0501 77.3386 97.2084 76.4719 97.5251 75.6553C97.8418 74.8386 98.2918 74.1136 98.8751 73.4803C99.4751 72.8469 100.2 72.3553 101.05 72.0053C101.9 71.6386 102.858 71.4553 103.925 71.4553C104.992 71.4553 105.942 71.6386 106.775 72.0053C107.625 72.3553 108.35 72.8469 108.95 73.4803C109.55 74.1136 110 74.8386 110.3 75.6553C110.617 76.4719 110.775 77.3386 110.775 78.2553C110.775 79.1553 110.617 80.0136 110.3 80.8303C110 81.6469 109.55 82.3719 108.95 83.0053C108.367 83.6386 107.65 84.1386 106.8 84.5053C105.95 84.8553 104.992 85.0303 103.925 85.0303ZM100.5 78.2553C100.5 79.0219 100.65 79.7053 100.95 80.3053C101.25 80.8886 101.658 81.3469 102.175 81.6803C102.692 82.0136 103.275 82.1803 103.925 82.1803C104.558 82.1803 105.133 82.0136 105.65 81.6803C106.167 81.3303 106.575 80.8636 106.875 80.2803C107.192 79.6803 107.35 78.9969 107.35 78.2303C107.35 77.4803 107.192 76.8053 106.875 76.2053C106.575 75.6053 106.167 75.1386 105.65 74.8053C105.133 74.4719 104.558 74.3053 103.925 74.3053C103.275 74.3053 102.692 74.4803 102.175 74.8303C101.658 75.1636 101.25 75.6303 100.95 76.2303C100.65 76.8136 100.5 77.4886 100.5 78.2553ZM119.086 85.0303C118.02 85.0303 117.061 84.8553 116.211 84.5053C115.361 84.1386 114.636 83.6386 114.036 83.0053C113.453 82.3719 113.003 81.6469 112.686 80.8303C112.37 80.0136 112.211 79.1553 112.211 78.2553C112.211 77.3386 112.37 76.4719 112.686 75.6553C113.003 74.8386 113.453 74.1136 114.036 73.4803C114.636 72.8469 115.361 72.3553 116.211 72.0053C117.061 71.6386 118.02 71.4553 119.086 71.4553C120.153 71.4553 121.103 71.6386 121.936 72.0053C122.786 72.3553 123.511 72.8469 124.111 73.4803C124.711 74.1136 125.161 74.8386 125.461 75.6553C125.778 76.4719 125.936 77.3386 125.936 78.2553C125.936 79.1553 125.778 80.0136 125.461 80.8303C125.161 81.6469 124.711 82.3719 124.111 83.0053C123.528 83.6386 122.811 84.1386 121.961 84.5053C121.111 84.8553 120.153 85.0303 119.086 85.0303ZM115.661 78.2553C115.661 79.0219 115.811 79.7053 116.111 80.3053C116.411 80.8886 116.82 81.3469 117.336 81.6803C117.853 82.0136 118.436 82.1803 119.086 82.1803C119.72 82.1803 120.295 82.0136 120.811 81.6803C121.328 81.3303 121.736 80.8636 122.036 80.2803C122.353 79.6803 122.511 78.9969 122.511 78.2303C122.511 77.4803 122.353 76.8053 122.036 76.2053C121.736 75.6053 121.328 75.1386 120.811 74.8053C120.295 74.4719 119.72 74.3053 119.086 74.3053C118.436 74.3053 117.853 74.4803 117.336 74.8303C116.82 75.1636 116.411 75.6303 116.111 76.2303C115.811 76.8136 115.661 77.4886 115.661 78.2553ZM137.147 84.7803L133.322 79.1303L131.547 80.8803V84.7803H128.197V66.5303H131.547V77.5803L136.822 71.7053H140.372L135.497 77.2553L140.722 84.7803H137.147Z" fill="#64675A"/>
</svg>
